@startuml
class "@PlayerInput" <<partial>> {
    + asset : InputActionAsset <<get>>
    + @PlayerInput()
    + Dispose() : void
    + bindingMask : InputBinding? <<get>> <<set>>
    + devices : ReadOnlyArray<InputDevice>? <<get>> <<set>>
    + controlSchemes : ReadOnlyArray<InputControlScheme> <<get>>
    + Contains(action:InputAction) : bool
    + GetEnumerator() : IEnumerator<InputAction>
    - GetEnumerator() : IEnumerator
    + Enable() : void
    + Disable() : void
    + bindings : IEnumerable<InputBinding> <<get>>
    + FindAction(actionNameOrId:string, throwIfNotFound:bool) : InputAction
    + FindBinding(bindingMask:InputBinding, action:InputAction) : int
    - <<readonly>> m_gameplay : InputActionMap
    - m_GameplayActionsCallbackInterfaces : List<IGameplayActions>
    - <<readonly>> m_gameplay_DRAG : InputAction
    - <<readonly>> m_gameplay_Click : InputAction
    - <<readonly>> m_gameplay_Hold : InputAction
    - <<readonly>> m_gameplay_DoubleClick : InputAction
    + @gameplay : GameplayActions <<get>>
}
struct GameplayActions {
    - m_Wrapper : @PlayerInput
    + GameplayActions(wrapper:@PlayerInput)
    + @DRAG : InputAction <<get>>
    + @Click : InputAction <<get>>
    + @Hold : InputAction <<get>>
    + @DoubleClick : InputAction <<get>>
    + Get() : InputActionMap
    + Enable() : void
    + Disable() : void
    + enabled : bool <<get>>
    + AddCallbacks(instance:IGameplayActions) : void
    - UnregisterCallbacks(instance:IGameplayActions) : void
    + RemoveCallbacks(instance:IGameplayActions) : void
    + SetCallbacks(instance:IGameplayActions) : void
}
interface IGameplayActions {
    OnDRAG(context:InputAction.CallbackContext) : void
    OnClick(context:InputAction.CallbackContext) : void
    OnHold(context:InputAction.CallbackContext) : void
    OnDoubleClick(context:InputAction.CallbackContext) : void
}
IInputActionCollection2 <|-- "@PlayerInput"
IDisposable <|-- "@PlayerInput"
"@PlayerInput" +-- GameplayActions
"@PlayerInput" +-- IGameplayActions
@enduml
